<svg version="1.2" xmlns="http://www.w3.org/2000/svg" viewBox="0 0 1000 200" width="1000" height="200">
	<title>ondrejvelisek-logo</title>
	<style>
		.s0 { fill: #ffffff } 
		.s1 { fill: #ccffff } 
		.s2 { fill: #99f7ff } 
		.s3 { fill: #66e5ff } 
		.s4 { fill: #33ccff } 
		.s5 { fill: #00aaff } 
		.s6 { fill: #fcf4ca } 
		.s7 { fill: #fce897 } 
		.s8 { fill: #fcdc72 } 
		.s9 { fill: #fccd4c } 
		.s10 { fill: #fcbc26 } 
		.s11 { fill: #fca800 } 
	</style>
	<g id="letters">
		<path id="o" fill-rule="evenodd" class="s0" d="m77.7 133.2q-10.9 0-17-6-6.1-6.1-6.1-16.9 0-20.1 9.2-31.4 9.1-11.2 25.5-11.2 10.9 0 16.9 6.2 6.2 6.2 6.2 17.2 0 19.9-9.2 31-9.1 11.1-25.5 11.1zm2.6-13.7q8 0 12.5-6.8 4.5-6.9 4.5-19 0-5.8-2.7-9.1-2.7-3.2-7.5-3.2-8.2 0-12.9 6.8-4.5 6.8-4.5 19 0 5.7 2.8 9 2.8 3.3 7.8 3.3z"/>
		<path id=" n" class="s1" d="m135.7 132h-15l11.2-63.1h12.6l-0.3 12.6h1.5q1.9-6.6 6.8-10.2 5-3.6 12.2-3.6 20 0 15.6 24.6l-7 39.7h-14.9l6.9-39.7q1.9-10.9-6.9-10.9-5.8 0-10.5 4.7-4.7 4.7-7.1 16.9z"/>
		<path id="  d" fill-rule="evenodd" class="s2" d="m208.4 133.3q-8.4 0-13.1-4.7-4.6-4.6-4.6-13.1 0-12.6 6.2-22.4 6.2-9.8 17.1-16.1 10.9-6.3 25.1-8.4l0.7-4q0.9-5.1-0.4-7.4-1.3-2.4-4.9-2.4-3.3 0-6.8 1l-1.7-13.1q5.3-1.3 10.1-1.3 11.5 0 16 6.3 4.5 6.3 2 20.1l-7.6 43.4q-0.8 4.8 0.4 7 1.2 2.1 6.6 2.1h2.9l-2.2 12.3h-5.3q-4.8 0-8.6-1.1-3.8-1.2-5.8-4.4-2-3.1-1.3-9.1h-2.1q-3.5 7.2-9.4 11.3-5.8 4-13.3 4zm26.4-40l1.9-11.1q-8.9 1.6-15.9 5.8-7.1 4.2-11.1 10.4-4 6.1-4 13.6 0 7.5 7.7 7.5 7.5 0 13.1-6.8 5.6-6.9 8.3-19.4z"/>
		<path id="   r" class="s3" d="m318.7 133.1q-9.5 0-14-4.1-4.4-4-4.2-12.5 0-3.2 0.9-7.3 0.8-4.1 2.5-9.6l5-17.1h-16.8q-1.6 11.2-6.2 20.3-4.6 9.1-12.7 17.8l-10.9-8.9q8.8-9.1 12.7-19.3 3.8-10.2 3.8-24.7v-5.2h14.3v5q0 0.9 0 1.7h34.5l-8.8 30q-1.6 5.6-2.4 9.2-0.9 3.5-0.9 5.3-0.2 6.3 6.9 6.3 2.7 0 4.6-0.4l0.9 12.4q-4.3 1.1-9.2 1.1z"/>
		<path id="    e" fill-rule="evenodd" class="s4" d="m367.1 119.5q4.4 0 9.5-1.4 5.1-1.4 9.8-3.9l4.1 12.6q-5.7 3.2-12.2 4.8-6.5 1.6-12.5 1.6-12.7 0-19.9-6.6-7.2-6.6-7.2-18.5 0-12.1 4.8-21.3 4.7-9.1 13.3-14.1 8.5-5 20-5 9.4 0 14.6 4.7 5.3 4.7 5.3 13 0 11.3-11.4 17.3-11.4 5.9-32.7 6.4 0.8 5 4.6 7.7 3.7 2.7 9.9 2.7zm-13.7-21q13.6-0.6 21.1-3.7 7.5-3.2 7.5-8.3 0-5.4-7.6-5.4-7.9 0-13.5 4.7-5.6 4.6-7.5 12.7z"/>
		<path id="     j" class="s5" d="m409.9 159.9l-11.3 0.7-0.7-13.5 13.1-1.1q7.3-0.6 11.3-2.9 4.1-2.3 6.2-6.5 2.1-4.2 3.2-10.7l6.5-37q1.4-7.6-6-7.6-4.8 0-10.3 0.6-5.5 0.6-11.8 1.6l-1.2-13.5q6.3-1.1 12.6-1.7 6.3-0.6 12.6-0.6 12 0 16.5 5.3 4.4 5.4 2.5 16.4l-6.2 34.6q-1.6 9-4 15.4-2.3 6.5-6.4 10.9-4 4.3-10.5 6.7-6.4 2.3-16.1 2.9zm41.5-100.2q-4.2 0-7-2.7-2.7-2.7-2.7-7 0-4.2 2.7-6.9 2.8-2.8 7-2.8 4.2 0 7 2.8 2.7 2.7 2.7 6.9 0 4.3-2.7 7-2.8 2.7-7 2.7z"/>
		<path id="      v" class="s0" d="m501.1 132h-17.5l-7.8-63.1 15.3-1.2 5.4 50.7h1.2q20.9-18.9 22-49.5h15q-1.6 39.7-33.6 63.1z"/>
		<path id="       e" fill-rule="evenodd" class="s6" d="m570.2 119.5q4.5 0 9.5-1.4 5.2-1.4 9.9-3.9l4.1 12.6q-5.7 3.2-12.3 4.8-6.5 1.6-12.4 1.6-12.8 0-20-6.6-7.1-6.6-7.1-18.5 0-12.1 4.7-21.3 4.8-9.1 13.3-14.1 8.6-5 20-5 9.4 0 14.7 4.7 5.2 4.7 5.2 13 0 11.3-11.4 17.3-11.3 5.9-32.7 6.4 0.9 5 4.6 7.7 3.8 2.7 9.9 2.7zm-13.7-21q13.6-0.6 21.1-3.7 7.6-3.2 7.6-8.3 0-5.4-7.7-5.4-7.9 0-13.5 4.7-5.5 4.6-7.5 12.7z"/>
		<path id="        l" fill-rule="evenodd" class="s7" d="m665.3 117.3l2.8 13.2q-4.6 1.4-8.3 2.1-3.7 0.6-7.3 0.6-9.8 0-16.4-3.5-6.6-3.4-10.3-10.8-7.7 3.2-16.4 5.4l-3.1-12.5q8.4-2 15.6-5.2-1.4-7.5-1.4-17.7 0-14.3 4-25 4.1-10.7 11.4-16.5 7.3-5.9 17.1-5.9 8 0 12.7 5.3 4.7 5.3 4.7 14.4 0 16-8.4 29.2-8.2 13.1-23.3 22.1 4.3 7 14.2 7 6.3 0 12.4-2.2zm-30.5-17.9q9.9-7.1 15.3-16.7 5.4-9.7 5.4-21.2-0.1-6.3-5.1-6.3-4.8 0-8.4 4.4-3.5 4.5-5.6 12.6-1.9 8.1-1.9 19 0 4.5 0.3 8.2z"/>
		<path id="         i" class="s8" d="m730.7 116.2l4.2 12q-3.7 2.1-7.7 3.6-4.1 1.4-9.3 1.4-22.7 0-21.4-19.9 0.4-6.5 2.8-12.5 2.5-6 3.8-11.4 2.1-8.1-7.4-8.1-5.6 0-10.9 1.4l-1.2-13.4q3.5-1 7-1.3 3.5-0.3 7-0.3 25.8 0 20.4 22.2-1 4-2.4 7.5-1.4 3.5-2.6 7-1.1 3.4-1.4 7.3-0.6 7.8 8.6 7.8 3 0 5.2-0.7 2.2-0.8 5.3-2.6zm-13.7-56.5q-4.2 0-7-2.7-2.7-2.7-2.7-7 0-4.2 2.7-6.9 2.8-2.8 7-2.8 4.2 0 6.9 2.8 2.8 2.7 2.8 6.9 0 4.3-2.8 7-2.7 2.7-6.9 2.7z"/>
		<path id="          s" class="s9" d="m776.3 68.9h12.8q2.3 7.9 4.3 13.4 2 5.5 3.6 9.6 1.6 4.1 2.5 7.8 0.9 3.6 0.9 7.8 0.1 12.3-8.2 19-8.4 6.7-23.6 6.7-6.9 0-12-1.1-5.1-1.1-9.9-3.7l4.1-12.8q4.7 2 8.8 3 4.1 0.9 9 0.9 8 0 12.4-3.2 4.4-3.3 4.4-9.3 0-5-1.9-10.3-1.9-5.4-4.3-10.9-3.4 2.5-7.6 5.5-4.3 2.9-8.7 5.7-4.3 2.7-8 4.9-3.7 2.2-5.8 3.3l-7.3-12.3q3-1.8 7.6-4.6 4.6-2.9 9.7-6.3 5.1-3.4 9.6-6.8 4.6-3.5 7.6-6.3z"/>
		<path id="           e" fill-rule="evenodd" class="s10" d="m842.4 119.5q4.5 0 9.5-1.4 5.1-1.4 9.8-3.9l4.2 12.6q-5.8 3.2-12.3 4.8-6.5 1.6-12.5 1.6-12.7 0-19.9-6.6-7.2-6.6-7.2-18.5 0-12.1 4.8-21.3 4.8-9.1 13.3-14.1 8.6-5 20-5 9.4 0 14.6 4.7 5.3 4.7 5.3 13 0 11.3-11.4 17.3-11.4 5.9-32.7 6.4 0.8 5 4.6 7.7 3.7 2.7 9.9 2.7zm-13.7-21q13.6-0.6 21.1-3.7 7.5-3.2 7.5-8.3 0-5.4-7.6-5.4-7.9 0-13.5 4.7-5.6 4.6-7.5 12.7z"/>
		<path id="            k" class="s11" d="m937.3 133.2q-12 0-18.8-7.2-6.9-7.2-8.3-20.7 11.2-4.9 15.5-9.6 4.2-4.8 4.2-8.9 0-5.4-6.3-5.4-4.1 0-8.4 2.4-4.4 2.4-7.8 7.2-3.3 4.7-4.5 11.9v-0.2l-5.2 29.3h-14.9l11.8-67.4q0.9-5.1-0.4-7.4-1.2-2.4-4.7-2.4-1.4 0-2.7 0.2-1.3 0.1-2.5 0.5l-1.6-13.2q2.2-0.5 4.5-0.7 2.3-0.2 4.5-0.2 11.6 0 15.8 5.4 4.2 5.4 2.1 17.5l-3.2 18.1h1.8q1.7-6.6 7.3-10.7 5.6-4 13.1-4 7.4 0 11.8 4.4 4.5 4.5 4.5 11.9 0 8.7-5.1 15.7-5.1 6.9-14.4 11.5 1.8 4.5 5.2 6.4 3.5 1.9 8.8 1.9 1.2 0 1.9-0.1 0.8 0 1.5-0.1l1.2 13.2q-1.5 0.3-3.1 0.5-1.5 0.2-3.6 0.2z"/>
	</g>
</svg>